<?xml version="1.0" encoding="UTF-8" standalone="no" ?>
<!DOCTYPE svg PUBLIC "-//W3C//DTD SVG 1.1//EN" "http://www.w3.org/Graphics/SVG/1.1/DTD/svg11.dtd">
<svg xmlns="http://www.w3.org/2000/svg" xmlns:xlink="http://www.w3.org/1999/xlink" version="1.1" width="500" height="500" viewBox="0 0 500 500" xml:space="preserve">
<desc>Created with Fabric.js 4.6.0</desc>
<defs>
</defs>
<g transform="matrix(1 0 0 1 250 250)" id="zp4B96g36UrBM61n_WISA"  >
<path style="stroke: rgb(84,100,134); stroke-width: 0; stroke-dasharray: none; stroke-linecap: butt; stroke-dashoffset: 0; stroke-linejoin: miter; stroke-miterlimit: 4; fill: rgb(247,223,30); fill-rule: nonzero; opacity: 1;" vector-effect="non-scaling-stroke"  transform=" translate(0, 0)" d="M -210.99117 -210.99117 L 210.99117 -210.99117 L 210.99117 210.99117 L -210.99117 210.99117 z" stroke-linecap="round" />
</g>
<g transform="matrix(1 0 0 1 242.68 152.73)" id="haHVNJ5AcVnhYtLWeoWwX"  >
<path style="stroke: rgb(0,0,0); stroke-width: 5; stroke-dasharray: none; stroke-linecap: butt; stroke-dashoffset: 0; stroke-linejoin: miter; stroke-miterlimit: 4; fill: rgb(255,255,255); fill-opacity: 0; fill-rule: nonzero; opacity: 1;" vector-effect="non-scaling-stroke"  transform=" translate(0, 0)" d="M -18.44636 9.07753 L -18.44636 9.07753 C -21.93143 13.19625 -23.843809999999998 18.41694 -23.843809999999998 23.812260000000002 L -23.843809999999998 24.288520000000002 L -16.419449999999998 21.99051 L -16.419449999999998 21.99051 C -7.735169999999998 19.30252 1.4318700000000035 18.54616 10.439270000000004 19.77445 L 18.354430000000004 20.85379 L 22.946340000000006 13.506730000000001 L 22.946340000000006 13.506730000000001 C 24.526830000000007 10.97794 23.972750000000005 7.667480000000001 21.654950000000007 5.791160000000001 L 15.410370000000007 0.7360200000000017 L 15.110420000000007 -1.9635599999999984 L 15.110420000000007 -1.9635599999999984 C 13.842810000000007 -13.37202 5.015840000000006 -22.47695 -6.347849999999992 -24.09755 L -7.6868999999999925 -24.28851" stroke-linecap="round" />
</g>
<g transform="matrix(1 0 0 1 232.45 124.73)" id="SYfuKHQYy5sW_qBlq_n4j"  >
<path style="stroke: rgb(0,0,0); stroke-width: 5; stroke-dasharray: none; stroke-linecap: butt; stroke-dashoffset: 0; stroke-linejoin: miter; stroke-miterlimit: 4; fill: rgb(255,255,255); fill-opacity: 0; fill-rule: nonzero; opacity: 1;" vector-effect="non-scaling-stroke"  transform=" translate(0, 0)" d="M 0.12567 16.47674 L 1.52917 10.511859999999999 C 3.17053 3.536089999999999 2.62338 -3.775940000000002 -0.03785000000000016 -10.429750000000002 L -2.4563800000000002 -16.476740000000003" stroke-linecap="round" />
</g>
<g transform="matrix(1 0 0 1 226.2 117.9)" id="VBCbZOJPWdLfH239hfMGq"  >
<path style="stroke: rgb(0,0,0); stroke-width: 5; stroke-dasharray: none; stroke-linecap: butt; stroke-dashoffset: 0; stroke-linejoin: miter; stroke-miterlimit: 4; fill: rgb(255,255,255); fill-opacity: 0; fill-rule: nonzero; opacity: 1;" vector-effect="non-scaling-stroke"  transform=" translate(0, 0)" d="M -3.8112 23.8025 L -3.8112 21.13959 C -3.8061599999999998 12.342459999999999 -1.84133 3.6569399999999987 1.9405300000000003 -4.285800000000002 C 2.5054000000000003 -5.472160000000002 2.63992 -6.266980000000002 3.0489500000000005 -8.110160000000002 C 4.763990000000001 -15.838320000000003 3.0489500000000005 -23.80251 3.0489500000000005 -23.80251" stroke-linecap="round" />
</g>
<g transform="matrix(1 0 0 1 195.72 176.49)" id="jYXoxay_hJKUcTkOmNKtV"  >
<path style="stroke: rgb(0,0,0); stroke-width: 5; stroke-dasharray: none; stroke-linecap: butt; stroke-dashoffset: 0; stroke-linejoin: miter; stroke-miterlimit: 4; fill: rgb(255,255,255); fill-opacity: 0; fill-rule: nonzero; opacity: 1;" vector-effect="non-scaling-stroke"  transform=" translate(0, 0)" d="M 26.16905 -46.34432 L 18.735549999999996 -43.720620000000004 C 10.902989999999996 -40.956070000000004 4.100669999999996 -35.86699 -0.7624900000000032 -29.133390000000006 L -1.5740000000000032 -28.009760000000007 L -1.5740000000000032 -28.009760000000007 C -8.739290000000002 -18.088580000000007 -13.852360000000003 -6.837070000000008 -16.613590000000002 5.0854599999999905 L -26.169040000000003 46.34431999999999" stroke-linecap="round" />
</g>
<g transform="matrix(1 0 0 1 264.84 121.32)" id="atLQpxfiLrPX0NlF-qzPI"  >
<path style="stroke: rgb(0,0,0); stroke-width: 10; stroke-dasharray: none; stroke-linecap: butt; stroke-dashoffset: 0; stroke-linejoin: miter; stroke-miterlimit: 4; fill: rgb(255,255,255); fill-opacity: 0; fill-rule: nonzero; opacity: 1;" vector-effect="non-scaling-stroke"  transform=" translate(0, 0)" d="M -29.85238 0 L 29.85238 0" stroke-linecap="round" />
</g>
<g transform="matrix(1 0 0 1 294.7 188.29)" id="fh9rHZzlATn3oMt9EtMNZ"  >
<path style="stroke: rgb(0,0,0); stroke-width: 10; stroke-dasharray: none; stroke-linecap: butt; stroke-dashoffset: 0; stroke-linejoin: miter; stroke-miterlimit: 4; fill: rgb(255,255,255); fill-opacity: 0; fill-rule: nonzero; opacity: 1;" vector-effect="non-scaling-stroke"  transform=" translate(0, 0)" d="M -22.08047 -66.97743 C -22.08047 -66.97743 -12.833689999999999 -38.92887 -1.7934599999999996 -5.440159999999999 C -0.021609999999999685 -0.06555999999999873 1.7964300000000004 5.449160000000001 3.6001900000000004 10.92059 C 13.03557 39.54124 22.080470000000002 66.97742 22.080470000000002 66.97742" stroke-linecap="round" />
</g>
<g transform="matrix(1 0 0 1 206.85 222.09)" id="oKUdXXnYkC1K3zwkaskKm"  >
<path style="stroke: rgb(0,0,0); stroke-width: 10; stroke-dasharray: none; stroke-linecap: butt; stroke-dashoffset: 0; stroke-linejoin: miter; stroke-miterlimit: 4; fill: rgb(255,255,255); fill-opacity: 0; fill-rule: nonzero; opacity: 1;" vector-effect="non-scaling-stroke"  transform=" translate(0, 0)" d="M 17.53731 -101.77065 L -26.024529999999995 -101.77065 L -64.76937 -5.088610000000003 L -101.09069 -5.088610000000003 L -101.09069 -5.088610000000003 C -109.75628999999999 -5.088610000000003 -116.78115 1.9362499999999976 -116.78115 10.601849999999997 L -116.78115 88.99006 L -116.78115 88.99006 C -116.78115 92.39838 -115.41977 95.66552 -112.99956999999999 98.06537 C -110.57937 100.46522 -107.30085999999999 101.79897 -103.89265999999999 101.77019 L 116.78116000000001 99.90698" stroke-linecap="round" />
</g>
<g transform="matrix(1 0 0 1 287.89 280.55)" id="Qq5PmX5azbIMyOr3jBnHg"  >
<path style="stroke: rgb(0,0,0); stroke-width: 10; stroke-dasharray: none; stroke-linecap: butt; stroke-dashoffset: 0; stroke-linejoin: miter; stroke-miterlimit: 4; fill: rgb(255,255,255); fill-opacity: 0; fill-rule: nonzero; opacity: 1;" vector-effect="non-scaling-stroke"  transform=" translate(0, 0)" d="M -145.73111 -64.53915 L 28.959270000000004 -27.247690000000006 L 68.20412 -13.018050000000006 L 70.291 -7.764860000000006 L 70.291 -7.764860000000006 C 77.89442 11.374789999999994 94.41615 25.557169999999992 114.48680999999999 30.173149999999993 L 118.74385999999998 31.152209999999993 L 138.86162 22.801379999999995 L 145.7311 31.152209999999997 L 106.2847 52.55883 L 106.2847 52.55883 C 98.28847 56.8982 89.63786 59.90399 80.67373 61.45777 L 65.67369000000001 64.05778 L 65.67369000000001 64.05778 C 60.251470000000005 64.99763 54.679860000000005 64.55657 49.473060000000004 62.77528999999999 L 49.473060000000004 62.77528999999999 L 49.473060000000004 62.77528999999999 C 42.911770000000004 60.53063999999999 38.186550000000004 54.76527999999999 37.27403 47.89096999999999 L 31.403320000000004 3.6649699999999896 L 19.136390000000006 -9.09264000000001 L -137.23907 -42.04259000000001" stroke-linecap="round" />
</g>
<g transform="matrix(1 0 0 1 226.23 245.94)" id="gXu1GchlsLa-wA8ZaSRe_"  >
<path style="stroke: rgb(0,0,0); stroke-width: 10; stroke-dasharray: none; stroke-linecap: butt; stroke-dashoffset: 0; stroke-linejoin: miter; stroke-miterlimit: 4; fill: rgb(255,255,255); fill-opacity: 0; fill-rule: nonzero; opacity: 1;" vector-effect="non-scaling-stroke"  transform=" translate(0, 0)" d="M -84.64647 -29.93597 L -57.159229999999994 29.935959999999998 L 84.64646 29.935959999999998" stroke-linecap="round" />
</g>
<g transform="matrix(1 0 0 1 154.33 324.47)" id="9kdyHcKfKPNtYQ6c3d7Jh"  >
<path style="stroke: rgb(178,186,188); stroke-width: 0; stroke-dasharray: none; stroke-linecap: butt; stroke-dashoffset: 0; stroke-linejoin: miter; stroke-miterlimit: 4; fill: rgb(0,0,0); fill-rule: nonzero; opacity: 1;" vector-effect="non-scaling-stroke"  transform=" translate(-39.5, -39.5)" d="M 39.49951 0 C 61.30324 0 78.99902 17.69578 78.99902 39.49951 C 78.99902 61.30324 61.30324 78.99902 39.49951 78.99902 C 17.69578 78.99902 0 61.30324 0 39.49951 C 0 17.69578 17.69578 0 39.49951 0 z" stroke-linecap="round" />
</g>
<g transform="matrix(1 0 0 1 265.7 324.47)" id="wONyMcCnKLaEPWK8Xg6NC"  >
<path style="stroke: rgb(178,186,188); stroke-width: 0; stroke-dasharray: none; stroke-linecap: butt; stroke-dashoffset: 0; stroke-linejoin: miter; stroke-miterlimit: 4; fill: rgb(0,0,0); fill-rule: nonzero; opacity: 1;" vector-effect="non-scaling-stroke"  transform=" translate(-39.5, -39.5)" d="M 39.49951 0 C 61.30324 0 78.99902 17.69578 78.99902 39.49951 C 78.99902 61.30324 61.30324 78.99902 39.49951 78.99902 C 17.69578 78.99902 0 61.30324 0 39.49951 C 0 17.69578 17.69578 0 39.49951 0 z" stroke-linecap="round" />
</g>
<g transform="matrix(1 0 0 1 265.7 324.47)" id="6pHSXNoZxhpo7Gtw8d5Ee"  >
<path style="stroke: rgb(130,179,21); stroke-width: 0; stroke-dasharray: none; stroke-linecap: butt; stroke-dashoffset: 0; stroke-linejoin: miter; stroke-miterlimit: 4; fill: rgb(247,223,30); fill-rule: nonzero; opacity: 1;" vector-effect="non-scaling-stroke"  transform=" translate(-17.17, -17.17)" d="M 17.1737 0 C 26.653579999999998 0 34.3474 7.69382 34.3474 17.1737 C 34.3474 26.653579999999998 26.65358 34.3474 17.1737 34.3474 C 7.6938200000000005 34.3474 0 26.65358 0 17.1737 C 0 7.6938200000000005 7.69382 0 17.1737 0 z" stroke-linecap="round" />
</g>
<g transform="matrix(1 0 0 1 100.38 322.49)" id="7APNbokDvkajpMtqB7QX1"  >
<path style="stroke: rgb(0,0,0); stroke-width: 1; stroke-dasharray: none; stroke-linecap: butt; stroke-dashoffset: 0; stroke-linejoin: miter; stroke-miterlimit: 4; fill: rgb(255,255,255); fill-opacity: 0; fill-rule: nonzero; opacity: 1;" vector-effect="non-scaling-stroke"  transform=" translate(0, 0)" d="M 0 0" stroke-linecap="round" />
</g>
<g transform="matrix(1 0 0 1 286.2 234.25)" id="-314-gRYc2mHIA56HssYf"  >
<path style="stroke: rgb(0,0,0); stroke-width: 4; stroke-dasharray: none; stroke-linecap: butt; stroke-dashoffset: 0; stroke-linejoin: miter; stroke-miterlimit: 4; fill: rgb(255,255,255); fill-opacity: 0; fill-rule: nonzero; opacity: 1;" vector-effect="non-scaling-stroke"  transform=" translate(0, 0)" d="M 8.49486 15.74567 L 0.3929999999999989 0.6333900000000003 L -8.494860000000001 -15.745659999999999" stroke-linecap="round" />
</g>
<g transform="matrix(1.32 0 0 1.32 277.71 218.51)" id="Lj30S9Go-cGMaWg4A4wdn"  >
<path style="stroke: rgb(107,61,55); stroke-width: 0; stroke-dasharray: none; stroke-linecap: butt; stroke-dashoffset: 0; stroke-linejoin: miter; stroke-miterlimit: 4; fill: rgb(0,0,0); fill-rule: nonzero; opacity: 1;" vector-effect="non-scaling-stroke"  transform=" translate(0, 0)" d="M 0 -4.66143 C 2.57311 -4.66143 4.66143 -2.5731100000000002 4.66143 0 C 4.66143 2.57311 2.5731100000000002 4.66143 0 4.66143 C -2.57311 4.66143 -4.66143 2.5731100000000002 -4.66143 0 C -4.66143 -2.57311 -2.5731100000000002 -4.66143 0 -4.66143 z" stroke-linecap="round" />
</g>
<g transform="matrix(1 0 0 1 243.35 200)" id="NPOog96V5EMcAufBm9Hgw"  >
<path style="stroke: rgb(0,0,0); stroke-width: 5; stroke-dasharray: none; stroke-linecap: butt; stroke-dashoffset: 0; stroke-linejoin: miter; stroke-miterlimit: 4; fill: rgb(255,255,255); fill-opacity: 0; fill-rule: nonzero; opacity: 1;" vector-effect="non-scaling-stroke"  transform=" translate(0, 0)" d="M -36.49165 0.67357 L -32.14913 4.6803 C -24.9165 11.353670000000001 -15.56983 15.27488 -5.7407900000000005 15.759419999999999 L -0.6689700000000007 16.009439999999998 L 25.76607 10.348009999999999 L 35.37911 10.348009999999999 L 35.37911 10.348009999999999 C 35.749199999999995 10.344339999999999 36.093759999999996 10.15866 36.30034 9.851569999999999 C 36.50692 9.544469999999999 36.54903 9.155349999999999 36.41292 8.811169999999999 L 35.6614 7.090279999999999 L 35.6614 7.090279999999999 C 34.86963 5.287649999999999 33.09156 4.1194299999999995 31.12273 4.1083099999999995 L 28.26841 4.1083099999999995 L 3.4558199999999992 4.1083099999999995 L -3.7156400000000005 -2.0275600000000003 L -3.7156400000000005 -2.0275600000000003 C -5.81045 -3.8198700000000003 -8.09273 -5.38065 -10.522770000000001 -6.68275 L -27.928710000000002 -16.00946" stroke-linecap="round" />
</g>
<g transform="matrix(1 0 0 1 238.57 183.5)" id="_58w89ayoTclPWUs-hnuH"  >
<path style="stroke: rgb(0,0,0); stroke-width: 5; stroke-dasharray: none; stroke-linecap: butt; stroke-dashoffset: 0; stroke-linejoin: miter; stroke-miterlimit: 4; fill: rgb(255,255,255); fill-opacity: 0; fill-rule: nonzero; opacity: 1;" vector-effect="non-scaling-stroke"  transform=" translate(0, 0)" d="M 1.85123 -11.28557 L 0.47536 -6.7019899999999994 C -0.56657 -3.2308999999999997 -1.20141 0.3495500000000007 -1.41637 3.96727 L -1.85123 11.28558" stroke-linecap="round" />
</g>
<g transform="matrix(1 0 0 1 236.72 226)" id="meTd811nQrImimVizSSgS"  >
<path style="stroke: rgb(0,0,0); stroke-width: 5; stroke-dasharray: none; stroke-linecap: butt; stroke-dashoffset: 0; stroke-linejoin: miter; stroke-miterlimit: 4; fill: rgb(255,255,255); fill-opacity: 0; fill-rule: nonzero; opacity: 1;" vector-effect="non-scaling-stroke"  transform=" translate(0, 0)" d="M -2.23043 -10.49178 L -1.5192100000000002 -8.85476 C 0.9541199999999996 -3.1619200000000003 2.2304299999999997 2.9787 2.2304299999999997 9.185619999999998 L 2.2304299999999997 10.491779999999999" stroke-linecap="round" />
</g>
<g transform="matrix(1 0 0 1 165.44 253.27)" id="m_Z5bffwf6qcLRXVgJLV3"  >
<path style="stroke: rgb(0,0,0); stroke-width: 5; stroke-dasharray: none; stroke-linecap: butt; stroke-dashoffset: 0; stroke-linejoin: miter; stroke-miterlimit: 4; fill: rgb(255,255,255); fill-opacity: 0; fill-rule: nonzero; opacity: 1;" vector-effect="non-scaling-stroke"  transform=" translate(0, 0)" d="M 1.6114 -12.26693 L -1.6114 12.26693" stroke-linecap="round" />
</g>
<g transform="matrix(0.94 0 0 0.94 238.34 266.33)" id="qOt3z6xcHaK4UDLOuFKgj"  >
<path style="stroke: rgb(0,0,0); stroke-width: 5; stroke-dasharray: none; stroke-linecap: butt; stroke-dashoffset: 0; stroke-linejoin: miter; stroke-miterlimit: 4; fill: rgb(255,255,255); fill-opacity: 0; fill-rule: nonzero; opacity: 1;" vector-effect="non-scaling-stroke"  transform=" translate(0, 0)" d="M 1.18315 -11.1971 L 1.09968 -4.15875 C 1.06483 -1.2204000000000006 0.75176 1.7080399999999996 0.16464 4.58735 L -1.1831399999999999 11.197109999999999" stroke-linecap="round" />
</g>
<g transform="matrix(1 0 0 1 154.33 324.47)" id="-VTwBQd8-fume1KQakL_-"  >
<path style="stroke: rgb(130,179,21); stroke-width: 0; stroke-dasharray: none; stroke-linecap: butt; stroke-dashoffset: 0; stroke-linejoin: miter; stroke-miterlimit: 4; fill: rgb(247,223,30); fill-rule: nonzero; opacity: 1;" vector-effect="non-scaling-stroke"  transform=" translate(-17.17, -17.17)" d="M 17.1737 0 C 26.653579999999998 0 34.3474 7.69382 34.3474 17.1737 C 34.3474 26.653579999999998 26.65358 34.3474 17.1737 34.3474 C 7.6938200000000005 34.3474 0 26.65358 0 17.1737 C 0 7.6938200000000005 7.69382 0 17.1737 0 z" stroke-linecap="round" />
</g>
</svg>